<?xml version="1.0" encoding="iso-8859-1"?>
<!-- Generator: Adobe Illustrator 16.0.0, SVG Export Plug-In . SVG Version: 6.00 Build 0)  -->
<!DOCTYPE svg PUBLIC "-//W3C//DTD SVG 1.1//EN" "http://www.w3.org/Graphics/SVG/1.1/DTD/svg11.dtd">
<svg fill="#fc6545" version="1.1" id="Capa_1" xmlns="http://www.w3.org/2000/svg" xmlns:xlink="http://www.w3.org/1999/xlink" x="0px" y="0px"
	 width="31.462px" height="31.463px" viewBox="0 0 31.462 31.463" style="enable-background:new 0 0 31.462 31.463;"
	 xml:space="preserve">
<g>
	<path d="M31.261,0.622c-0.008-0.009-0.012-0.019-0.016-0.024c-0.008-0.013-0.02-0.021-0.023-0.031
		c-0.227-0.311-0.586-0.514-0.998-0.514h-0.002H9.269H9.266c-0.683,0-1.233,0.553-1.233,1.234v0.001v1.076v4.042V8.68v4.043v2.271
		v4.041v2.273v4.043v1.075l0,0c0,0.247,0.074,0.478,0.199,0.671c0.006,0.006,0.008,0.014,0.012,0.021
		c0.01,0.012,0.02,0.021,0.025,0.03c0.225,0.312,0.586,0.515,0.997,0.515h0.002h1.534c-0.258,1.675-1.695,2.965-3.441,2.965
		c-1.764,0-3.212-1.317-3.445-3.021h1.547l0,0c0.683,0,1.234-0.553,1.234-1.233v-0.001v-1.075v-4.043v-2.272v-4.041v-2.273V8.625
		V6.352V2.311V1.234V1.232c0-0.244-0.072-0.474-0.197-0.664C6.495,0.561,6.49,0.55,6.484,0.544C6.479,0.532,6.47,0.523,6.461,0.514
		C6.236,0.204,5.875,0,5.462,0l0,0H1.241H1.239C0.557,0,0.007,0.553,0.007,1.232v0.002V2.31v4.041v2.273v4.043v2.273v4.041v2.272
		v4.043v1.076v0.001c0,0.247,0.072,0.477,0.197,0.669c0.006,0.006,0.01,0.015,0.014,0.021c0.008,0.013,0.017,0.021,0.023,0.031
		c0.227,0.312,0.586,0.514,0.998,0.514h0.002h1.838c0.239,2.162,2.057,3.855,4.281,3.855c2.207,0,4.014-1.667,4.277-3.802h18.584
		h0.002c0.683,0,1.232-0.554,1.232-1.233v-0.002V25.35v-4.043v-2.271v-4.041v-2.272V8.68V6.407V2.365V1.289V1.288
		C31.458,1.041,31.384,0.812,31.261,0.622z M15.97,18.656c0,0.291-0.236,0.525-0.527,0.525h-2.902c-0.291,0-0.526-0.234-0.526-0.525
		v-1.23c0-0.289,0.235-0.525,0.526-0.525h2.902c0.291,0,0.527,0.236,0.527,0.525V18.656z M15.97,14.473
		c0,0.291-0.236,0.527-0.527,0.527h-2.902c-0.291,0-0.526-0.236-0.526-0.527v-1.229c0-0.291,0.235-0.527,0.526-0.527h2.902
		c0.291,0,0.527,0.236,0.527,0.527V14.473z M15.97,10.29c0,0.289-0.236,0.526-0.527,0.526h-2.902c-0.291,0-0.526-0.237-0.526-0.526
		V9.061c0-0.291,0.235-0.527,0.526-0.527h2.902c0.291,0,0.527,0.236,0.527,0.527V10.29z M21.724,18.656
		c0,0.291-0.234,0.525-0.527,0.525h-2.901c-0.293,0-0.526-0.234-0.526-0.525v-1.23c0-0.289,0.233-0.525,0.526-0.525h2.901
		c0.293,0,0.527,0.236,0.527,0.525V18.656z M21.724,14.473c0,0.291-0.234,0.527-0.527,0.527h-2.901
		c-0.293,0-0.526-0.236-0.526-0.527v-1.229c0-0.291,0.233-0.527,0.526-0.527h2.901c0.293,0,0.527,0.236,0.527,0.527V14.473z
		 M21.724,10.29c0,0.289-0.234,0.526-0.527,0.526h-2.901c-0.293,0-0.526-0.237-0.526-0.526V9.061c0-0.291,0.233-0.527,0.526-0.527
		h2.901c0.293,0,0.527,0.236,0.527,0.527V10.29z M27.478,18.656c0,0.291-0.236,0.525-0.529,0.525h-2.899
		c-0.293,0-0.528-0.234-0.528-0.525v-1.23c0-0.289,0.235-0.525,0.528-0.525h2.899c0.293,0,0.529,0.236,0.529,0.525V18.656z
		 M27.478,14.473c0,0.291-0.236,0.527-0.529,0.527h-2.899c-0.293,0-0.528-0.236-0.528-0.527v-1.229c0-0.291,0.235-0.527,0.528-0.527
		h2.899c0.293,0,0.529,0.236,0.529,0.527V14.473z M27.478,10.29c0,0.289-0.236,0.526-0.529,0.526h-2.899
		c-0.293,0-0.528-0.237-0.528-0.526V9.061c0-0.291,0.235-0.527,0.528-0.527h2.899c0.293,0,0.529,0.236,0.529,0.527V10.29z"/>
</g>
<g>
</g>
<g>
</g>
<g>
</g>
<g>
</g>
<g>
</g>
<g>
</g>
<g>
</g>
<g>
</g>
<g>
</g>
<g>
</g>
<g>
</g>
<g>
</g>
<g>
</g>
<g>
</g>
<g>
</g>
</svg>
